Coordinates
version=1
nRows=17
nColumns=36
inDegrees=yes

Units are S.I. units (second, meters, Newtons, ...)
If the header above contains a line with 'inDegrees', this indicates whether rotational values are in degrees (yes) or radians (no).

endheader
time	pelvis_tilt	pelvis_list	pelvis_rotation	pelvis_tx	pelvis_ty	pelvis_tz	hip_flexion_r	hip_adduction_r	hip_rotation_r	knee_angle_r	knee_angle_r_beta	ankle_angle_r	subtalar_angle_r	mtp_angle_r	hip_flexion_l	hip_adduction_l	hip_rotation_l	knee_angle_l	knee_angle_l_beta	ankle_angle_l	subtalar_angle_l	mtp_angle_l	lumbar_extension	lumbar_bending	lumbar_rotation	arm_flex_r	arm_add_r	arm_rot_r	elbow_flex_r	pro_sup_r	arm_flex_l	arm_add_l	arm_rot_l	elbow_flex_l	pro_sup_l
     14.83333330	     -2.08360019	    -14.58925351	      3.88882572	      0.72046369	      1.03852076	      0.81795261	     22.20395846	     14.86025134	     -8.45534092	     20.09314057	      0.35069146	      4.92790242	    -14.07410481	     -7.49999987	      2.26181564	    -20.36332695	     -0.76274507	     53.91406009	      0.94097786	    -28.46080273	     -9.74540386	     -7.49999987	     -3.82165448	     20.02143123	     -3.37043559	     -0.35079457	    -13.12887205	     -4.80261434	     12.26421417	     83.79161025	     10.98633969	     -5.35353459	     -8.05510716	     44.10912599	     74.59455994
     14.85000000	     -1.74341872	    -14.50907461	      4.42526802	      0.71938622	      1.03912263	      0.82122749	     20.38342934	     14.98143412	     -8.81563454	     19.72670190	      0.34429590	      5.35746925	    -13.91092743	     -7.49999987	      4.67275390	    -20.25469263	      1.26856239	     57.26474990	      0.99945843	    -28.37316626	     -9.10848129	     -7.49999987	     -3.93976998	     19.96489812	     -3.13690749	      0.04901107	    -12.79089044	     -4.92946522	     12.81574783	     83.43332373	      9.91121278	     -5.02725804	     -8.19401280	     40.45313494	     74.53644681
     14.86666670	     -1.24915407	    -14.19023543	      4.85672737	      0.71720507	      1.03985087	      0.82615492	     18.47970889	     14.91127982	     -8.99884687	     19.58319825	      0.34179129	      6.00818244	    -13.68839111	     -7.49999987	      6.76962763	    -19.82928667	      2.98676404	     60.15490259	      1.04990111	    -26.25970603	     -8.96337870	     -7.49999987	     -4.52847194	     19.57583978	     -2.60704382	      0.63194227	    -12.47449478	     -4.51248131	     13.51417918	     80.79780528	      8.98396378	     -4.92834652	     -7.73048929	     37.41524623	     73.17040335
     14.88333330	     -0.83700837	    -13.59189665	      5.07631659	      0.71363622	      1.04123728	      0.83157328	     16.65670981	     14.60161582	     -8.92580797	     19.54682018	      0.34115637	      7.01865867	    -13.30053471	     -7.49999987	      8.91841747	    -19.06105728	      4.45608283	     62.61299103	      1.09280285	    -22.08863590	     -9.49325813	     -7.49999987	     -5.31223759	     18.81834843	     -2.10793676	      1.59982654	    -12.09562423	     -4.12066184	     14.16744938	     79.00892816	      8.10197440	     -4.95662413	     -7.69237676	     34.53365424	     72.27976917
     14.90000000	     -0.41326299	    -12.75103473	      4.97872590	      0.70973372	      1.04462474	      0.83572686	     14.64840726	     14.11325216	     -8.61539458	     19.33429454	      0.33744710	      8.29098216	    -12.44555463	     -7.49999987	     11.02808833	    -17.99474442	      5.55859741	     64.26174970	      1.12157912	    -16.56704662	    -10.72637576	     -7.49999987	     -6.32263258	     17.71597257	     -1.36630239	      2.64985035	    -11.76193523	     -3.66292569	     14.70591953	     77.58019054	      7.47915567	     -5.10778998	     -7.55592803	     31.21275048	     71.71551817
     14.91666670	      0.09095219	    -11.75035097	      5.01194851	      0.70758492	      1.04905837	      0.83775005	     12.30149307	     13.45758463	     -8.47237990	     18.57964410	      0.32427596	      9.52840976	    -11.42872119	     -7.49999987	     13.19538869	    -16.75506763	      6.49062182	     64.89120528	      1.13256519	    -11.13367577	    -11.89599430	     -7.49999987	     -7.51596218	     16.42738237	     -1.23696932	      3.95971248	    -11.34177386	     -3.88382708	     15.43428781	     76.60843683	      6.58003196	     -5.44345634	     -7.71932719	     28.52384579	     71.32257959
     14.93333330	      0.51084228	    -10.56411042	      4.64579306	      0.70720483	      1.05375232	      0.83880041	      9.82981348	     12.59825701	     -8.27173024	     17.48974205	      0.30525358	     11.04144941	     -9.58238390	     -7.49999987	     15.25032972	    -15.36640139	      6.60363612	     64.57369619	      1.12702361	     -7.53829023	    -13.17509358	     -7.49999987	     -8.70722889	     14.86782966	     -0.64674504	      5.18591392	    -11.09693757	     -4.05167966	     16.08433329	     76.63173845	      5.97517344	     -5.66009289	     -7.81088548	     25.56315267	     71.60423480
     14.95000000	      0.79824341	     -9.39745336	      4.10138552	      0.70651585	      1.05725637	      0.83978312	      7.41059250	     11.69183953	     -8.08476826	     16.12266868	      0.28139365	     12.29523534	     -7.57178603	     -7.49999987	     17.25154468	    -14.07454333	      6.08709140	     63.51128204	      1.10848098	     -5.41184778	    -13.94960217	     -7.49999987	     -9.76048142	     13.28232688	      0.43016533	      6.04662149	    -11.01969054	     -4.54202833	     17.26465435	     76.65258813	      5.44705850	     -5.64653928	     -7.89085832	     22.82547120	     72.06538285
     14.96666670	      0.85917523	     -8.33572288	      3.45461168	      0.70287311	      1.05814277	      0.84077430	      5.36568718	     10.82248319	     -7.69269058	     14.84247888	      0.25905013	     13.35499842	     -6.09650376	     -7.49999987	     19.28181925	    -13.00869861	      5.05190905	     61.86085411	      1.07967558	     -3.61463708	    -14.27639518	     -7.49999987	    -10.55210751	     11.82853517	      2.02765120	      6.40054048	    -10.95902133	     -7.22690783	     19.61331055	     76.28577126	      4.95733885	     -5.46397818	     -7.73956608	     20.35199504	     73.18506888
     14.98333330	      0.73539865	     -7.36386551	      2.88691881	      0.69639253	      1.05725037	      0.84130772	      3.76886224	      9.95010500	     -7.34698331	     13.81745021	      0.24116000	     14.13404619	     -4.89166850	     -7.49999987	     21.25210080	    -12.12444137	      3.75747432	     59.44386776	      1.03749121	     -1.53592655	    -14.28729275	     -7.49999987	    -11.17602442	     10.48874700	      3.08076675	      7.25381363	    -11.03635483	     -7.49288318	     21.73017242	     75.44866665	      4.02506110	     -5.42483556	     -7.63877540	     18.71523614	     72.41746710
     15.00000000	      0.49228238	     -6.49093696	      2.39295124	      0.69052475	      1.05791094	      0.84137550	      2.54387070	      9.12386831	     -6.86138035	     13.02814110	      0.22738396	     14.41514375	     -4.25650620	     -7.49999987	     22.97919483	    -11.41250746	      2.29366689	     56.17153852	      0.98037829	      0.72302700	    -13.96792931	     -7.49999987	    -11.65677790	      9.30456815	      3.80366647	      8.29680844	    -11.05878222	     -7.76291944	     23.77254121	     74.18297184	      2.73839557	     -5.40233296	     -8.12328000	     17.94230584	     71.24281824
     15.01666670	      0.05558930	     -5.75424102	      2.00382495	      0.68744690	      1.06055291	      0.84128639	      1.66212045	      8.36139624	     -6.57392857	     12.32300538	      0.21507702	     14.47670536	     -3.48746953	     -7.49999987	     24.62005680	    -10.81344207	      0.88054927	     52.20245288	      0.91110468	      2.64653034	    -13.38365255	     -7.49999987	    -11.83294786	      8.31406729	      4.66737104	      8.89493635	    -11.33750932	     -7.68200281	     26.09978126	     74.58566470	      1.66203405	     -5.32684015	     -8.34550273	     16.79521304	     71.48999689
     15.03333330	     -0.63023205	     -5.04048165	      1.62611950	      0.68629387	      1.06286721	      0.84085338	      0.98916824	      7.60987652	     -6.15542329	     11.45880377	      0.19999385	     14.25182309	     -3.02199453	     -7.49999987	     26.26472710	    -10.20068805	     -0.55404144	     47.65254980	      0.83169389	      3.86064928	    -12.54318732	     -7.49999987	    -11.57223399	      7.37106608	      5.08447409	      9.54572104	    -11.52654805	     -7.74083775	     27.79288089	     74.67013042	      0.17792011	     -5.29059585	     -8.51577244	     15.90831972	     71.52381953
     15.05000000	     -1.16173849	     -4.44221165	      1.30753386	      0.68582561	      1.06400459	      0.83928428	     -0.02274642	      6.96543655	     -5.87151984	     10.29886503	      0.17974910	     14.04778006	     -2.48949690	     -7.49999987	     27.56924474	     -9.61245852	     -1.92542299	     42.68236578	      0.74494782	      4.42169103	    -11.36825273	     -7.49999987	    -11.41863084	      6.73425376	      5.51352628	      9.97394416	    -11.84107055	     -7.82033714	     29.38909548	     74.82202038	     -1.12390471	     -5.20790623	     -8.77930121	     14.65230979	     71.57577342
     15.06666670	     -1.31226889	     -4.01229807	      1.05691830	      0.68614134	      1.06383922	      0.83722478	     -1.64364399	      6.50250378	     -5.70925641	      8.89923929	      0.15532103	     14.14549579	     -1.74366294	     -7.49999987	     28.30680284	     -9.09318365	     -3.22884616	     37.47831644	      0.65412002	      4.54878519	     -9.83853728	     -7.49999987	    -11.71657373	      6.26212665	      6.79830792	      9.27833975	    -12.35504334	     -9.79608074	     32.55200947	     74.80757007	     -1.58554154	     -4.95845812	     -9.75281813	     12.91488964	     71.75578224
     15.08333330	     -1.47974612	     -3.71243881	      0.91637126	      0.68625533	      1.06271222	      0.83558136	     -3.38590603	      6.17268829	     -5.64643028	      7.44427346	      0.12992708	     14.27835684	     -0.94429528	     -7.49999987	     28.88203590	     -8.50067057	     -4.23023693	     32.00665885	      0.55862158	      4.50216728	     -8.10025392	     -7.49999987	    -11.78105893	      6.04766523	      7.26403633	      9.39827176	    -13.02817619	     -9.73769206	     34.19900797	     74.23233971	     -2.47453975	     -4.84765946	     -9.60054889	     11.74367477	     71.27188317
     15.10000000	     -1.69165807	     -3.50992546	      0.96571392	      0.68463932	      1.06154965	      0.83427279	     -5.12903321	      5.93997082	     -5.80560855	      6.08502865	      0.10620378	     14.22913537	     -0.10572649	     -7.49999987	     29.24079908	     -7.75210097	     -4.70054724	     26.07291500	      0.45505821	      4.70796908	     -6.05603937	     -7.49999987	    -11.69263494	      6.00167610	      7.38784270	      9.83649964	    -13.66980629	     -9.60204620	     35.19698460	     74.00420607	     -3.49895989	     -4.72346888	     -9.54830386	     11.09260689	     70.99924662
